<svg width="17" height="17" viewBox="0 0 17 17" fill="none" xmlns="http://www.w3.org/2000/svg">
<g clip-path="url(#clip0_18221_418)">
<path fill-rule="evenodd" clip-rule="evenodd" d="M0.833496 5C0.833496 4.44772 1.28121 4 1.8335 4H14.8335C15.3858 4 15.8335 4.44772 15.8335 5V12C15.8335 12.5523 15.3858 13 14.8335 13H1.8335C1.28121 13 0.833496 12.5523 0.833496 12V5ZM14.8335 5H1.8335V12H14.8335V5Z" fill="#8047F8"/>
<path fill-rule="evenodd" clip-rule="evenodd" d="M8.3335 7C7.50507 7 6.8335 7.67157 6.8335 8.5C6.8335 9.32843 7.50507 10 8.3335 10C9.16192 10 9.8335 9.32843 9.8335 8.5C9.8335 7.67157 9.16192 7 8.3335 7ZM5.8335 8.5C5.8335 7.11929 6.95278 6 8.3335 6C9.71421 6 10.8335 7.11929 10.8335 8.5C10.8335 9.88071 9.71421 11 8.3335 11C6.95278 11 5.8335 9.88071 5.8335 8.5Z" fill="#8047F8"/>
<path fill-rule="evenodd" clip-rule="evenodd" d="M10.9572 4.17075C11.1391 3.96294 11.4549 3.94188 11.6628 4.12372L15.6628 7.62372C15.8706 7.80556 15.8916 8.12144 15.7098 8.32926C15.528 8.53708 15.2121 8.55814 15.0043 8.37629L11.0043 4.8763C10.7964 4.69445 10.7754 4.37857 10.9572 4.17075Z" fill="#8047F8"/>
<path fill-rule="evenodd" clip-rule="evenodd" d="M15.7098 8.67075C15.8916 8.87857 15.8706 9.19445 15.6628 9.3763L11.6628 12.8763C11.4549 13.0581 11.1391 13.0371 10.9572 12.8293C10.7754 12.6214 10.7964 12.3056 11.0043 12.1237L15.0043 8.62372C15.2121 8.44188 15.528 8.46294 15.7098 8.67075Z" fill="#8047F8"/>
<path fill-rule="evenodd" clip-rule="evenodd" d="M5.70979 4.17075C5.89163 4.37857 5.87057 4.69445 5.66276 4.8763L1.66276 8.37629C1.45494 8.55814 1.13906 8.53708 0.957215 8.32926C0.775374 8.12144 0.796432 7.80556 1.00425 7.62372L5.00425 4.12372C5.21207 3.94188 5.52795 3.96294 5.70979 4.17075Z" fill="#8047F8"/>
<path fill-rule="evenodd" clip-rule="evenodd" d="M0.957215 8.67075C1.13906 8.46294 1.45494 8.44188 1.66276 8.62372L5.66276 12.1237C5.87057 12.3056 5.89163 12.6214 5.70979 12.8293C5.52795 13.0371 5.21207 13.0581 5.00425 12.8763L1.00425 9.3763C0.796432 9.19445 0.775374 8.87857 0.957215 8.67075Z" fill="#574F4D"/>
</g>
<defs>
<clipPath id="clip0_18221_418">
<rect width="16" height="16" fill="white" transform="translate(0.333496 0.5)"/>
</clipPath>
</defs>
</svg>
